<svg width="29" height="29" viewBox="0 0 29 29" fill="none" xmlns="http://www.w3.org/2000/svg">
<circle cx="14.5" cy="14.5" r="13.9" stroke="#46248A" stroke-width="1.2"/>
<path d="M14.6292 10.6376C12.7334 10.6376 11.1626 12.1813 11.1626 14.1042C11.1626 16.0271 12.7063 17.5709 14.6292 17.5709C16.5522 17.5709 18.0959 16 18.0959 14.1042C18.0959 12.2084 16.5251 10.6376 14.6292 10.6376ZM14.6292 16.325C13.4105 16.325 12.4084 15.323 12.4084 14.1042C12.4084 12.8855 13.4105 11.8834 14.6292 11.8834C15.848 11.8834 16.8501 12.8855 16.8501 14.1042C16.8501 15.323 15.848 16.325 14.6292 16.325Z" fill="#46248A"/>
<path d="M18.2312 11.3417C18.665 11.3417 19.0166 10.9901 19.0166 10.5563C19.0166 10.1225 18.665 9.77087 18.2312 9.77087C17.7974 9.77087 17.4458 10.1225 17.4458 10.5563C17.4458 10.9901 17.7974 11.3417 18.2312 11.3417Z" fill="#46248A"/>
<path d="M20.2625 8.52508C19.5584 7.79384 18.5563 7.41467 17.4188 7.41467L11.8397 7.41467C9.48342 7.41467 7.9126 8.9855 7.9126 11.3417L7.9126 16.8938C7.9126 18.0584 8.29176 19.0604 9.05009 19.7917C9.78134 20.4959 10.7563 20.8479 11.8667 20.8479L17.3917 20.8479C18.5563 20.8479 19.5313 20.4688 20.2355 19.7917C20.9667 19.0875 21.3459 18.0855 21.3459 16.9209L21.3459 11.3417C21.3459 10.2042 20.9667 9.22925 20.2625 8.52508ZM20.1542 16.9209C20.1542 17.7605 19.8563 18.4375 19.3688 18.8979C18.8813 19.3584 18.2042 19.6021 17.3917 19.6021L11.8667 19.6021C11.0542 19.6021 10.3772 19.3584 9.88967 18.898C9.40217 18.4105 9.15843 17.7334 9.15843 16.8938L9.15842 11.3417C9.15842 10.5292 9.40217 9.85216 9.88967 9.36466C10.3501 8.90425 11.0542 8.6605 11.8667 8.6605L17.4459 8.6605C18.2584 8.6605 18.9355 8.90425 19.423 9.39175C19.8834 9.87924 20.1542 10.5563 20.1542 11.3417L20.1542 16.9209Z" fill="#46248A"/>
</svg>
